<mxfile host="Electron" agent="Mozilla/5.0 (X11; Linux x86_64) AppleWebKit/537.36 (KHTML, like Gecko) draw.io/27.0.9 Chrome/134.0.6998.205 Electron/35.5.1 Safari/537.36" version="27.0.9">
  <diagram name="Seite-1" id="PkTIkOZCXgZpDPZv6AoM">
    <mxGraphModel dx="2066" dy="1190" grid="1" gridSize="10" guides="1" tooltips="1" connect="1" arrows="1" fold="1" page="1" pageScale="1" pageWidth="827" pageHeight="1169" math="0" shadow="0">
      <root>
        <mxCell id="0" />
        <mxCell id="1" parent="0" />
        <mxCell id="J42YbYLg1RH-YCloQ76U-30" style="edgeStyle=orthogonalEdgeStyle;rounded=0;orthogonalLoop=1;jettySize=auto;html=1;entryX=0;entryY=0.5;entryDx=0;entryDy=0;endArrow=none;startFill=0;" parent="1" source="J42YbYLg1RH-YCloQ76U-1" target="J42YbYLg1RH-YCloQ76U-2" edge="1">
          <mxGeometry relative="1" as="geometry" />
        </mxCell>
        <mxCell id="J42YbYLg1RH-YCloQ76U-32" style="edgeStyle=orthogonalEdgeStyle;rounded=0;orthogonalLoop=1;jettySize=auto;html=1;entryX=0.5;entryY=0;entryDx=0;entryDy=0;endArrow=none;startFill=0;" parent="1" source="J42YbYLg1RH-YCloQ76U-1" target="J42YbYLg1RH-YCloQ76U-9" edge="1">
          <mxGeometry relative="1" as="geometry" />
        </mxCell>
        <mxCell id="J42YbYLg1RH-YCloQ76U-1" value="1,77A" style="whiteSpace=wrap;html=1;aspect=fixed;" parent="1" vertex="1">
          <mxGeometry x="520" y="200" width="80" height="80" as="geometry" />
        </mxCell>
        <mxCell id="J42YbYLg1RH-YCloQ76U-31" style="edgeStyle=orthogonalEdgeStyle;rounded=0;orthogonalLoop=1;jettySize=auto;html=1;entryX=0.5;entryY=0;entryDx=0;entryDy=0;endArrow=none;startFill=0;" parent="1" edge="1">
          <mxGeometry relative="1" as="geometry">
            <mxPoint x="680" y="281" as="sourcePoint" />
            <mxPoint x="680" y="321" as="targetPoint" />
          </mxGeometry>
        </mxCell>
        <mxCell id="J42YbYLg1RH-YCloQ76U-2" value="1,77A" style="whiteSpace=wrap;html=1;aspect=fixed;" parent="1" vertex="1">
          <mxGeometry x="640" y="200" width="80" height="80" as="geometry" />
        </mxCell>
        <mxCell id="J42YbYLg1RH-YCloQ76U-28" style="edgeStyle=orthogonalEdgeStyle;rounded=0;orthogonalLoop=1;jettySize=auto;html=1;entryX=0;entryY=0.5;entryDx=0;entryDy=0;endArrow=none;startFill=0;" parent="1" source="J42YbYLg1RH-YCloQ76U-3" target="J42YbYLg1RH-YCloQ76U-4" edge="1">
          <mxGeometry relative="1" as="geometry" />
        </mxCell>
        <mxCell id="J42YbYLg1RH-YCloQ76U-37" style="edgeStyle=orthogonalEdgeStyle;rounded=0;orthogonalLoop=1;jettySize=auto;html=1;entryX=0.5;entryY=0;entryDx=0;entryDy=0;endArrow=none;startFill=0;" parent="1" source="J42YbYLg1RH-YCloQ76U-3" target="J42YbYLg1RH-YCloQ76U-5" edge="1">
          <mxGeometry relative="1" as="geometry" />
        </mxCell>
        <mxCell id="J42YbYLg1RH-YCloQ76U-3" value="1,77A" style="whiteSpace=wrap;html=1;aspect=fixed;" parent="1" vertex="1">
          <mxGeometry x="280" y="200" width="80" height="80" as="geometry" />
        </mxCell>
        <mxCell id="J42YbYLg1RH-YCloQ76U-29" style="edgeStyle=orthogonalEdgeStyle;rounded=0;orthogonalLoop=1;jettySize=auto;html=1;entryX=0;entryY=0.5;entryDx=0;entryDy=0;endArrow=none;startFill=0;" parent="1" source="J42YbYLg1RH-YCloQ76U-4" target="J42YbYLg1RH-YCloQ76U-1" edge="1">
          <mxGeometry relative="1" as="geometry" />
        </mxCell>
        <mxCell id="J42YbYLg1RH-YCloQ76U-35" style="edgeStyle=orthogonalEdgeStyle;rounded=0;orthogonalLoop=1;jettySize=auto;html=1;entryX=0.5;entryY=0;entryDx=0;entryDy=0;endArrow=none;startFill=0;" parent="1" source="J42YbYLg1RH-YCloQ76U-4" target="J42YbYLg1RH-YCloQ76U-8" edge="1">
          <mxGeometry relative="1" as="geometry" />
        </mxCell>
        <mxCell id="J42YbYLg1RH-YCloQ76U-4" value="1,77A" style="whiteSpace=wrap;html=1;aspect=fixed;" parent="1" vertex="1">
          <mxGeometry x="400" y="200" width="80" height="80" as="geometry" />
        </mxCell>
        <mxCell id="J42YbYLg1RH-YCloQ76U-39" style="edgeStyle=orthogonalEdgeStyle;rounded=0;orthogonalLoop=1;jettySize=auto;html=1;entryX=1;entryY=0.5;entryDx=0;entryDy=0;endArrow=none;startFill=0;" parent="1" source="J42YbYLg1RH-YCloQ76U-5" target="J42YbYLg1RH-YCloQ76U-7" edge="1">
          <mxGeometry relative="1" as="geometry" />
        </mxCell>
        <mxCell id="J42YbYLg1RH-YCloQ76U-44" style="edgeStyle=orthogonalEdgeStyle;rounded=0;orthogonalLoop=1;jettySize=auto;html=1;entryX=0.5;entryY=0;entryDx=0;entryDy=0;endArrow=none;startFill=0;" parent="1" source="J42YbYLg1RH-YCloQ76U-5" target="J42YbYLg1RH-YCloQ76U-12" edge="1">
          <mxGeometry relative="1" as="geometry" />
        </mxCell>
        <mxCell id="J42YbYLg1RH-YCloQ76U-5" value="1,77A" style="whiteSpace=wrap;html=1;aspect=fixed;" parent="1" vertex="1">
          <mxGeometry x="280" y="320" width="80" height="80" as="geometry" />
        </mxCell>
        <mxCell id="J42YbYLg1RH-YCloQ76U-26" style="edgeStyle=orthogonalEdgeStyle;rounded=0;orthogonalLoop=1;jettySize=auto;html=1;entryX=0;entryY=0.5;entryDx=0;entryDy=0;endArrow=none;startFill=0;" parent="1" source="J42YbYLg1RH-YCloQ76U-6" target="J42YbYLg1RH-YCloQ76U-3" edge="1">
          <mxGeometry relative="1" as="geometry" />
        </mxCell>
        <mxCell id="J42YbYLg1RH-YCloQ76U-40" style="edgeStyle=orthogonalEdgeStyle;rounded=0;orthogonalLoop=1;jettySize=auto;html=1;entryX=0.5;entryY=0;entryDx=0;entryDy=0;endArrow=none;startFill=0;" parent="1" source="J42YbYLg1RH-YCloQ76U-6" target="J42YbYLg1RH-YCloQ76U-7" edge="1">
          <mxGeometry relative="1" as="geometry" />
        </mxCell>
        <mxCell id="J42YbYLg1RH-YCloQ76U-6" value="1,77A" style="whiteSpace=wrap;html=1;aspect=fixed;" parent="1" vertex="1">
          <mxGeometry x="160" y="200" width="80" height="80" as="geometry" />
        </mxCell>
        <mxCell id="J42YbYLg1RH-YCloQ76U-41" style="edgeStyle=orthogonalEdgeStyle;rounded=0;orthogonalLoop=1;jettySize=auto;html=1;entryX=0.5;entryY=0;entryDx=0;entryDy=0;endArrow=none;startFill=0;" parent="1" source="J42YbYLg1RH-YCloQ76U-7" target="J42YbYLg1RH-YCloQ76U-11" edge="1">
          <mxGeometry relative="1" as="geometry" />
        </mxCell>
        <mxCell id="J42YbYLg1RH-YCloQ76U-7" value="1,77A" style="whiteSpace=wrap;html=1;aspect=fixed;" parent="1" vertex="1">
          <mxGeometry x="160" y="320" width="80" height="80" as="geometry" />
        </mxCell>
        <mxCell id="J42YbYLg1RH-YCloQ76U-38" style="edgeStyle=orthogonalEdgeStyle;rounded=0;orthogonalLoop=1;jettySize=auto;html=1;entryX=1;entryY=0.5;entryDx=0;entryDy=0;endArrow=none;startFill=0;" parent="1" source="J42YbYLg1RH-YCloQ76U-8" target="J42YbYLg1RH-YCloQ76U-5" edge="1">
          <mxGeometry relative="1" as="geometry" />
        </mxCell>
        <mxCell id="J42YbYLg1RH-YCloQ76U-45" style="edgeStyle=orthogonalEdgeStyle;rounded=0;orthogonalLoop=1;jettySize=auto;html=1;entryX=0.5;entryY=0;entryDx=0;entryDy=0;endArrow=none;startFill=0;" parent="1" source="J42YbYLg1RH-YCloQ76U-8" target="J42YbYLg1RH-YCloQ76U-13" edge="1">
          <mxGeometry relative="1" as="geometry" />
        </mxCell>
        <mxCell id="J42YbYLg1RH-YCloQ76U-8" value="1,77A" style="whiteSpace=wrap;html=1;aspect=fixed;" parent="1" vertex="1">
          <mxGeometry x="400" y="320" width="80" height="80" as="geometry" />
        </mxCell>
        <mxCell id="J42YbYLg1RH-YCloQ76U-34" style="edgeStyle=orthogonalEdgeStyle;rounded=0;orthogonalLoop=1;jettySize=auto;html=1;entryX=1;entryY=0.5;entryDx=0;entryDy=0;endArrow=none;startFill=0;" parent="1" source="J42YbYLg1RH-YCloQ76U-9" target="J42YbYLg1RH-YCloQ76U-8" edge="1">
          <mxGeometry relative="1" as="geometry" />
        </mxCell>
        <mxCell id="J42YbYLg1RH-YCloQ76U-47" style="edgeStyle=orthogonalEdgeStyle;rounded=0;orthogonalLoop=1;jettySize=auto;html=1;entryX=0.5;entryY=0;entryDx=0;entryDy=0;endArrow=none;startFill=0;" parent="1" source="J42YbYLg1RH-YCloQ76U-9" target="J42YbYLg1RH-YCloQ76U-14" edge="1">
          <mxGeometry relative="1" as="geometry" />
        </mxCell>
        <mxCell id="J42YbYLg1RH-YCloQ76U-9" value="1,77A" style="whiteSpace=wrap;html=1;aspect=fixed;" parent="1" vertex="1">
          <mxGeometry x="520" y="320" width="80" height="80" as="geometry" />
        </mxCell>
        <mxCell id="J42YbYLg1RH-YCloQ76U-33" style="edgeStyle=orthogonalEdgeStyle;rounded=0;orthogonalLoop=1;jettySize=auto;html=1;entryX=1;entryY=0.5;entryDx=0;entryDy=0;endArrow=none;startFill=0;" parent="1" source="J42YbYLg1RH-YCloQ76U-10" target="J42YbYLg1RH-YCloQ76U-9" edge="1">
          <mxGeometry relative="1" as="geometry" />
        </mxCell>
        <mxCell id="J42YbYLg1RH-YCloQ76U-49" style="edgeStyle=orthogonalEdgeStyle;rounded=0;orthogonalLoop=1;jettySize=auto;html=1;entryX=0.5;entryY=0;entryDx=0;entryDy=0;endArrow=none;startFill=0;" parent="1" source="J42YbYLg1RH-YCloQ76U-10" target="J42YbYLg1RH-YCloQ76U-15" edge="1">
          <mxGeometry relative="1" as="geometry" />
        </mxCell>
        <mxCell id="J42YbYLg1RH-YCloQ76U-10" value="1,77A" style="whiteSpace=wrap;html=1;aspect=fixed;" parent="1" vertex="1">
          <mxGeometry x="640" y="320" width="80" height="80" as="geometry" />
        </mxCell>
        <mxCell id="J42YbYLg1RH-YCloQ76U-42" style="edgeStyle=orthogonalEdgeStyle;rounded=0;orthogonalLoop=1;jettySize=auto;html=1;entryX=0;entryY=0.5;entryDx=0;entryDy=0;endArrow=none;startFill=0;" parent="1" source="J42YbYLg1RH-YCloQ76U-11" target="J42YbYLg1RH-YCloQ76U-12" edge="1">
          <mxGeometry relative="1" as="geometry" />
        </mxCell>
        <mxCell id="J42YbYLg1RH-YCloQ76U-57" style="edgeStyle=orthogonalEdgeStyle;rounded=0;orthogonalLoop=1;jettySize=auto;html=1;entryX=0.5;entryY=0;entryDx=0;entryDy=0;endArrow=none;startFill=0;" parent="1" source="J42YbYLg1RH-YCloQ76U-11" target="J42YbYLg1RH-YCloQ76U-16" edge="1">
          <mxGeometry relative="1" as="geometry" />
        </mxCell>
        <mxCell id="J42YbYLg1RH-YCloQ76U-11" value="1,77A" style="whiteSpace=wrap;html=1;aspect=fixed;" parent="1" vertex="1">
          <mxGeometry x="160" y="440" width="80" height="80" as="geometry" />
        </mxCell>
        <mxCell id="J42YbYLg1RH-YCloQ76U-43" style="edgeStyle=orthogonalEdgeStyle;rounded=0;orthogonalLoop=1;jettySize=auto;html=1;entryX=0;entryY=0.5;entryDx=0;entryDy=0;endArrow=none;startFill=0;" parent="1" source="J42YbYLg1RH-YCloQ76U-12" target="J42YbYLg1RH-YCloQ76U-13" edge="1">
          <mxGeometry relative="1" as="geometry" />
        </mxCell>
        <mxCell id="J42YbYLg1RH-YCloQ76U-55" style="edgeStyle=orthogonalEdgeStyle;rounded=0;orthogonalLoop=1;jettySize=auto;html=1;entryX=0.5;entryY=0;entryDx=0;entryDy=0;endArrow=none;startFill=0;" parent="1" source="J42YbYLg1RH-YCloQ76U-12" target="J42YbYLg1RH-YCloQ76U-18" edge="1">
          <mxGeometry relative="1" as="geometry" />
        </mxCell>
        <mxCell id="J42YbYLg1RH-YCloQ76U-12" value="1,77A" style="whiteSpace=wrap;html=1;aspect=fixed;" parent="1" vertex="1">
          <mxGeometry x="280" y="440" width="80" height="80" as="geometry" />
        </mxCell>
        <mxCell id="J42YbYLg1RH-YCloQ76U-46" style="edgeStyle=orthogonalEdgeStyle;rounded=0;orthogonalLoop=1;jettySize=auto;html=1;entryX=0;entryY=0.5;entryDx=0;entryDy=0;endArrow=none;startFill=0;" parent="1" source="J42YbYLg1RH-YCloQ76U-13" target="J42YbYLg1RH-YCloQ76U-14" edge="1">
          <mxGeometry relative="1" as="geometry" />
        </mxCell>
        <mxCell id="J42YbYLg1RH-YCloQ76U-53" style="edgeStyle=orthogonalEdgeStyle;rounded=0;orthogonalLoop=1;jettySize=auto;html=1;entryX=0.5;entryY=0;entryDx=0;entryDy=0;endArrow=none;startFill=0;" parent="1" source="J42YbYLg1RH-YCloQ76U-13" target="J42YbYLg1RH-YCloQ76U-17" edge="1">
          <mxGeometry relative="1" as="geometry" />
        </mxCell>
        <mxCell id="J42YbYLg1RH-YCloQ76U-13" value="1,77A" style="whiteSpace=wrap;html=1;aspect=fixed;" parent="1" vertex="1">
          <mxGeometry x="400" y="440" width="80" height="80" as="geometry" />
        </mxCell>
        <mxCell id="J42YbYLg1RH-YCloQ76U-48" style="edgeStyle=orthogonalEdgeStyle;rounded=0;orthogonalLoop=1;jettySize=auto;html=1;entryX=0;entryY=0.5;entryDx=0;entryDy=0;endArrow=none;startFill=0;" parent="1" source="J42YbYLg1RH-YCloQ76U-14" target="J42YbYLg1RH-YCloQ76U-15" edge="1">
          <mxGeometry relative="1" as="geometry" />
        </mxCell>
        <mxCell id="J42YbYLg1RH-YCloQ76U-52" style="edgeStyle=orthogonalEdgeStyle;rounded=0;orthogonalLoop=1;jettySize=auto;html=1;entryX=0.5;entryY=0;entryDx=0;entryDy=0;endArrow=none;startFill=0;" parent="1" source="J42YbYLg1RH-YCloQ76U-14" target="J42YbYLg1RH-YCloQ76U-19" edge="1">
          <mxGeometry relative="1" as="geometry" />
        </mxCell>
        <mxCell id="J42YbYLg1RH-YCloQ76U-14" value="1,77A" style="whiteSpace=wrap;html=1;aspect=fixed;" parent="1" vertex="1">
          <mxGeometry x="520" y="440" width="80" height="80" as="geometry" />
        </mxCell>
        <mxCell id="J42YbYLg1RH-YCloQ76U-50" style="edgeStyle=orthogonalEdgeStyle;rounded=0;orthogonalLoop=1;jettySize=auto;html=1;entryX=0.5;entryY=0;entryDx=0;entryDy=0;endArrow=none;startFill=0;" parent="1" source="J42YbYLg1RH-YCloQ76U-15" target="J42YbYLg1RH-YCloQ76U-20" edge="1">
          <mxGeometry relative="1" as="geometry" />
        </mxCell>
        <mxCell id="J42YbYLg1RH-YCloQ76U-15" value="1,77A" style="whiteSpace=wrap;html=1;aspect=fixed;" parent="1" vertex="1">
          <mxGeometry x="640" y="440" width="80" height="80" as="geometry" />
        </mxCell>
        <mxCell id="J42YbYLg1RH-YCloQ76U-58" style="edgeStyle=orthogonalEdgeStyle;rounded=0;orthogonalLoop=1;jettySize=auto;html=1;entryX=0;entryY=0.5;entryDx=0;entryDy=0;endArrow=none;startFill=0;" parent="1" source="J42YbYLg1RH-YCloQ76U-16" target="J42YbYLg1RH-YCloQ76U-18" edge="1">
          <mxGeometry relative="1" as="geometry" />
        </mxCell>
        <mxCell id="J42YbYLg1RH-YCloQ76U-59" style="edgeStyle=orthogonalEdgeStyle;rounded=0;orthogonalLoop=1;jettySize=auto;html=1;entryX=0.5;entryY=0;entryDx=0;entryDy=0;endArrow=none;startFill=0;" parent="1" source="J42YbYLg1RH-YCloQ76U-16" target="J42YbYLg1RH-YCloQ76U-25" edge="1">
          <mxGeometry relative="1" as="geometry" />
        </mxCell>
        <mxCell id="J42YbYLg1RH-YCloQ76U-16" value="1,77A" style="whiteSpace=wrap;html=1;aspect=fixed;" parent="1" vertex="1">
          <mxGeometry x="160" y="560" width="80" height="80" as="geometry" />
        </mxCell>
        <mxCell id="J42YbYLg1RH-YCloQ76U-54" style="edgeStyle=orthogonalEdgeStyle;rounded=0;orthogonalLoop=1;jettySize=auto;html=1;entryX=0;entryY=0.5;entryDx=0;entryDy=0;endArrow=none;startFill=0;" parent="1" source="J42YbYLg1RH-YCloQ76U-17" target="J42YbYLg1RH-YCloQ76U-19" edge="1">
          <mxGeometry relative="1" as="geometry" />
        </mxCell>
        <mxCell id="J42YbYLg1RH-YCloQ76U-64" style="edgeStyle=orthogonalEdgeStyle;rounded=0;orthogonalLoop=1;jettySize=auto;html=1;entryX=0.5;entryY=0;entryDx=0;entryDy=0;endArrow=none;startFill=0;" parent="1" source="J42YbYLg1RH-YCloQ76U-17" target="J42YbYLg1RH-YCloQ76U-23" edge="1">
          <mxGeometry relative="1" as="geometry" />
        </mxCell>
        <mxCell id="J42YbYLg1RH-YCloQ76U-17" value="1,77A" style="whiteSpace=wrap;html=1;aspect=fixed;" parent="1" vertex="1">
          <mxGeometry x="400" y="560" width="80" height="80" as="geometry" />
        </mxCell>
        <mxCell id="J42YbYLg1RH-YCloQ76U-61" style="edgeStyle=orthogonalEdgeStyle;rounded=0;orthogonalLoop=1;jettySize=auto;html=1;entryX=0.5;entryY=0;entryDx=0;entryDy=0;endArrow=none;startFill=0;" parent="1" source="J42YbYLg1RH-YCloQ76U-18" target="J42YbYLg1RH-YCloQ76U-24" edge="1">
          <mxGeometry relative="1" as="geometry" />
        </mxCell>
        <mxCell id="J42YbYLg1RH-YCloQ76U-69" style="edgeStyle=orthogonalEdgeStyle;rounded=0;orthogonalLoop=1;jettySize=auto;html=1;entryX=0;entryY=0.5;entryDx=0;entryDy=0;endArrow=none;startFill=0;" parent="1" source="J42YbYLg1RH-YCloQ76U-18" target="J42YbYLg1RH-YCloQ76U-17" edge="1">
          <mxGeometry relative="1" as="geometry" />
        </mxCell>
        <mxCell id="J42YbYLg1RH-YCloQ76U-18" value="1,77A" style="whiteSpace=wrap;html=1;aspect=fixed;" parent="1" vertex="1">
          <mxGeometry x="280" y="560" width="80" height="80" as="geometry" />
        </mxCell>
        <mxCell id="J42YbYLg1RH-YCloQ76U-65" style="edgeStyle=orthogonalEdgeStyle;rounded=0;orthogonalLoop=1;jettySize=auto;html=1;entryX=0.5;entryY=0;entryDx=0;entryDy=0;endArrow=none;startFill=0;" parent="1" source="J42YbYLg1RH-YCloQ76U-19" target="J42YbYLg1RH-YCloQ76U-22" edge="1">
          <mxGeometry relative="1" as="geometry" />
        </mxCell>
        <mxCell id="J42YbYLg1RH-YCloQ76U-19" value="1,77A" style="whiteSpace=wrap;html=1;aspect=fixed;" parent="1" vertex="1">
          <mxGeometry x="520" y="560" width="80" height="80" as="geometry" />
        </mxCell>
        <mxCell id="J42YbYLg1RH-YCloQ76U-51" style="edgeStyle=orthogonalEdgeStyle;rounded=0;orthogonalLoop=1;jettySize=auto;html=1;entryX=1;entryY=0.5;entryDx=0;entryDy=0;endArrow=none;startFill=0;" parent="1" source="J42YbYLg1RH-YCloQ76U-20" target="J42YbYLg1RH-YCloQ76U-19" edge="1">
          <mxGeometry relative="1" as="geometry" />
        </mxCell>
        <mxCell id="J42YbYLg1RH-YCloQ76U-76" style="edgeStyle=orthogonalEdgeStyle;rounded=0;orthogonalLoop=1;jettySize=auto;html=1;entryX=0.5;entryY=0;entryDx=0;entryDy=0;endArrow=none;startFill=0;" parent="1" source="J42YbYLg1RH-YCloQ76U-20" target="J42YbYLg1RH-YCloQ76U-21" edge="1">
          <mxGeometry relative="1" as="geometry" />
        </mxCell>
        <mxCell id="J42YbYLg1RH-YCloQ76U-20" value="1,77A" style="whiteSpace=wrap;html=1;aspect=fixed;" parent="1" vertex="1">
          <mxGeometry x="640" y="560" width="80" height="80" as="geometry" />
        </mxCell>
        <mxCell id="J42YbYLg1RH-YCloQ76U-21" value="1,77A" style="whiteSpace=wrap;html=1;aspect=fixed;" parent="1" vertex="1">
          <mxGeometry x="640" y="680" width="80" height="80" as="geometry" />
        </mxCell>
        <mxCell id="J42YbYLg1RH-YCloQ76U-68" style="edgeStyle=orthogonalEdgeStyle;rounded=0;orthogonalLoop=1;jettySize=auto;html=1;entryX=0;entryY=0.5;entryDx=0;entryDy=0;endArrow=none;startFill=0;" parent="1" source="J42YbYLg1RH-YCloQ76U-22" target="J42YbYLg1RH-YCloQ76U-21" edge="1">
          <mxGeometry relative="1" as="geometry" />
        </mxCell>
        <mxCell id="J42YbYLg1RH-YCloQ76U-22" value="1,77A" style="whiteSpace=wrap;html=1;aspect=fixed;" parent="1" vertex="1">
          <mxGeometry x="520" y="680" width="80" height="80" as="geometry" />
        </mxCell>
        <mxCell id="J42YbYLg1RH-YCloQ76U-66" style="edgeStyle=orthogonalEdgeStyle;rounded=0;orthogonalLoop=1;jettySize=auto;html=1;entryX=0;entryY=0.5;entryDx=0;entryDy=0;endArrow=none;startFill=0;" parent="1" source="J42YbYLg1RH-YCloQ76U-23" target="J42YbYLg1RH-YCloQ76U-22" edge="1">
          <mxGeometry relative="1" as="geometry" />
        </mxCell>
        <mxCell id="J42YbYLg1RH-YCloQ76U-23" value="1,77A" style="whiteSpace=wrap;html=1;aspect=fixed;" parent="1" vertex="1">
          <mxGeometry x="400" y="680" width="80" height="80" as="geometry" />
        </mxCell>
        <mxCell id="J42YbYLg1RH-YCloQ76U-63" style="edgeStyle=orthogonalEdgeStyle;rounded=0;orthogonalLoop=1;jettySize=auto;html=1;entryX=0;entryY=0.5;entryDx=0;entryDy=0;endArrow=none;startFill=0;" parent="1" source="J42YbYLg1RH-YCloQ76U-24" target="J42YbYLg1RH-YCloQ76U-23" edge="1">
          <mxGeometry relative="1" as="geometry" />
        </mxCell>
        <mxCell id="J42YbYLg1RH-YCloQ76U-24" value="1,77A" style="whiteSpace=wrap;html=1;aspect=fixed;" parent="1" vertex="1">
          <mxGeometry x="280" y="680" width="80" height="80" as="geometry" />
        </mxCell>
        <mxCell id="J42YbYLg1RH-YCloQ76U-60" style="edgeStyle=orthogonalEdgeStyle;rounded=0;orthogonalLoop=1;jettySize=auto;html=1;entryX=0;entryY=0.5;entryDx=0;entryDy=0;endArrow=none;startFill=0;" parent="1" source="J42YbYLg1RH-YCloQ76U-25" target="J42YbYLg1RH-YCloQ76U-24" edge="1">
          <mxGeometry relative="1" as="geometry" />
        </mxCell>
        <mxCell id="J42YbYLg1RH-YCloQ76U-25" value="1,77A" style="whiteSpace=wrap;html=1;aspect=fixed;" parent="1" vertex="1">
          <mxGeometry x="160" y="680" width="80" height="80" as="geometry" />
        </mxCell>
        <mxCell id="J42YbYLg1RH-YCloQ76U-83" style="edgeStyle=orthogonalEdgeStyle;rounded=0;orthogonalLoop=1;jettySize=auto;html=1;entryX=0.5;entryY=1;entryDx=0;entryDy=0;endArrow=none;startFill=0;" parent="1" source="J42YbYLg1RH-YCloQ76U-77" target="J42YbYLg1RH-YCloQ76U-78" edge="1">
          <mxGeometry relative="1" as="geometry" />
        </mxCell>
        <mxCell id="J42YbYLg1RH-YCloQ76U-134" style="edgeStyle=orthogonalEdgeStyle;rounded=0;orthogonalLoop=1;jettySize=auto;html=1;entryX=1;entryY=0.5;entryDx=0;entryDy=0;endArrow=none;startFill=0;" parent="1" source="J42YbYLg1RH-YCloQ76U-77" target="J42YbYLg1RH-YCloQ76U-20" edge="1">
          <mxGeometry relative="1" as="geometry" />
        </mxCell>
        <mxCell id="J42YbYLg1RH-YCloQ76U-77" value="" style="rounded=0;whiteSpace=wrap;html=1;" parent="1" vertex="1">
          <mxGeometry x="760" y="560" width="30" height="80" as="geometry" />
        </mxCell>
        <mxCell id="J42YbYLg1RH-YCloQ76U-84" style="edgeStyle=orthogonalEdgeStyle;rounded=0;orthogonalLoop=1;jettySize=auto;html=1;entryX=0.5;entryY=1;entryDx=0;entryDy=0;endArrow=none;startFill=0;" parent="1" source="J42YbYLg1RH-YCloQ76U-78" target="J42YbYLg1RH-YCloQ76U-79" edge="1">
          <mxGeometry relative="1" as="geometry" />
        </mxCell>
        <mxCell id="J42YbYLg1RH-YCloQ76U-133" style="edgeStyle=orthogonalEdgeStyle;rounded=0;orthogonalLoop=1;jettySize=auto;html=1;entryX=1;entryY=0.5;entryDx=0;entryDy=0;endArrow=none;startFill=0;" parent="1" source="J42YbYLg1RH-YCloQ76U-78" target="J42YbYLg1RH-YCloQ76U-15" edge="1">
          <mxGeometry relative="1" as="geometry" />
        </mxCell>
        <mxCell id="J42YbYLg1RH-YCloQ76U-78" value="" style="rounded=0;whiteSpace=wrap;html=1;" parent="1" vertex="1">
          <mxGeometry x="760" y="440" width="30" height="80" as="geometry" />
        </mxCell>
        <mxCell id="J42YbYLg1RH-YCloQ76U-85" style="edgeStyle=orthogonalEdgeStyle;rounded=0;orthogonalLoop=1;jettySize=auto;html=1;entryX=0.5;entryY=1;entryDx=0;entryDy=0;endArrow=none;startFill=0;" parent="1" source="J42YbYLg1RH-YCloQ76U-79" target="J42YbYLg1RH-YCloQ76U-104" edge="1">
          <mxGeometry relative="1" as="geometry">
            <mxPoint x="775" y="280" as="targetPoint" />
          </mxGeometry>
        </mxCell>
        <mxCell id="J42YbYLg1RH-YCloQ76U-132" style="edgeStyle=orthogonalEdgeStyle;rounded=0;orthogonalLoop=1;jettySize=auto;html=1;entryX=1;entryY=0.5;entryDx=0;entryDy=0;endArrow=none;startFill=0;" parent="1" source="J42YbYLg1RH-YCloQ76U-79" target="J42YbYLg1RH-YCloQ76U-10" edge="1">
          <mxGeometry relative="1" as="geometry" />
        </mxCell>
        <mxCell id="J42YbYLg1RH-YCloQ76U-79" value="" style="rounded=0;whiteSpace=wrap;html=1;" parent="1" vertex="1">
          <mxGeometry x="760" y="320" width="30" height="80" as="geometry" />
        </mxCell>
        <mxCell id="J42YbYLg1RH-YCloQ76U-82" style="edgeStyle=orthogonalEdgeStyle;rounded=0;orthogonalLoop=1;jettySize=auto;html=1;entryX=0.5;entryY=1;entryDx=0;entryDy=0;endArrow=none;startFill=0;" parent="1" source="J42YbYLg1RH-YCloQ76U-81" target="J42YbYLg1RH-YCloQ76U-77" edge="1">
          <mxGeometry relative="1" as="geometry" />
        </mxCell>
        <mxCell id="J42YbYLg1RH-YCloQ76U-135" style="edgeStyle=orthogonalEdgeStyle;rounded=0;orthogonalLoop=1;jettySize=auto;html=1;entryX=1;entryY=0.5;entryDx=0;entryDy=0;endArrow=none;startFill=0;" parent="1" source="J42YbYLg1RH-YCloQ76U-81" target="J42YbYLg1RH-YCloQ76U-21" edge="1">
          <mxGeometry relative="1" as="geometry" />
        </mxCell>
        <mxCell id="J42YbYLg1RH-YCloQ76U-81" value="" style="rounded=0;whiteSpace=wrap;html=1;" parent="1" vertex="1">
          <mxGeometry x="760" y="720" width="30" height="80" as="geometry" />
        </mxCell>
        <mxCell id="J42YbYLg1RH-YCloQ76U-150" style="edgeStyle=orthogonalEdgeStyle;rounded=0;orthogonalLoop=1;jettySize=auto;html=1;entryX=0.5;entryY=0;entryDx=0;entryDy=0;endArrow=none;startFill=0;" parent="1" source="J42YbYLg1RH-YCloQ76U-103" target="J42YbYLg1RH-YCloQ76U-2" edge="1">
          <mxGeometry relative="1" as="geometry" />
        </mxCell>
        <mxCell id="J42YbYLg1RH-YCloQ76U-103" value="" style="rounded=0;whiteSpace=wrap;html=1;" parent="1" vertex="1">
          <mxGeometry x="680" y="130" width="80" height="30" as="geometry" />
        </mxCell>
        <mxCell id="J42YbYLg1RH-YCloQ76U-151" style="edgeStyle=orthogonalEdgeStyle;rounded=0;orthogonalLoop=1;jettySize=auto;html=1;entryX=1;entryY=0.5;entryDx=0;entryDy=0;endArrow=none;startFill=0;" parent="1" source="J42YbYLg1RH-YCloQ76U-104" target="J42YbYLg1RH-YCloQ76U-2" edge="1">
          <mxGeometry relative="1" as="geometry" />
        </mxCell>
        <mxCell id="J42YbYLg1RH-YCloQ76U-104" value="" style="rounded=0;whiteSpace=wrap;html=1;" parent="1" vertex="1">
          <mxGeometry x="760" y="130" width="30" height="110" as="geometry" />
        </mxCell>
        <mxCell id="J42YbYLg1RH-YCloQ76U-106" style="edgeStyle=orthogonalEdgeStyle;rounded=0;orthogonalLoop=1;jettySize=auto;html=1;entryX=0;entryY=0.5;entryDx=0;entryDy=0;endArrow=none;startFill=0;" parent="1" source="J42YbYLg1RH-YCloQ76U-105" target="J42YbYLg1RH-YCloQ76U-103" edge="1">
          <mxGeometry relative="1" as="geometry" />
        </mxCell>
        <mxCell id="J42YbYLg1RH-YCloQ76U-149" style="edgeStyle=orthogonalEdgeStyle;rounded=0;orthogonalLoop=1;jettySize=auto;html=1;entryX=0.5;entryY=0;entryDx=0;entryDy=0;endArrow=none;startFill=0;" parent="1" source="J42YbYLg1RH-YCloQ76U-105" target="J42YbYLg1RH-YCloQ76U-1" edge="1">
          <mxGeometry relative="1" as="geometry" />
        </mxCell>
        <mxCell id="J42YbYLg1RH-YCloQ76U-105" value="" style="rounded=0;whiteSpace=wrap;html=1;" parent="1" vertex="1">
          <mxGeometry x="520" y="130" width="80" height="30" as="geometry" />
        </mxCell>
        <mxCell id="J42YbYLg1RH-YCloQ76U-108" style="edgeStyle=orthogonalEdgeStyle;rounded=0;orthogonalLoop=1;jettySize=auto;html=1;entryX=0;entryY=0.5;entryDx=0;entryDy=0;endArrow=none;startFill=0;" parent="1" source="J42YbYLg1RH-YCloQ76U-107" target="J42YbYLg1RH-YCloQ76U-105" edge="1">
          <mxGeometry relative="1" as="geometry" />
        </mxCell>
        <mxCell id="J42YbYLg1RH-YCloQ76U-148" style="edgeStyle=orthogonalEdgeStyle;rounded=0;orthogonalLoop=1;jettySize=auto;html=1;entryX=0.5;entryY=0;entryDx=0;entryDy=0;endArrow=none;startFill=0;" parent="1" source="J42YbYLg1RH-YCloQ76U-107" target="J42YbYLg1RH-YCloQ76U-4" edge="1">
          <mxGeometry relative="1" as="geometry" />
        </mxCell>
        <mxCell id="J42YbYLg1RH-YCloQ76U-107" value="" style="rounded=0;whiteSpace=wrap;html=1;" parent="1" vertex="1">
          <mxGeometry x="400" y="130" width="80" height="30" as="geometry" />
        </mxCell>
        <mxCell id="J42YbYLg1RH-YCloQ76U-111" style="edgeStyle=orthogonalEdgeStyle;rounded=0;orthogonalLoop=1;jettySize=auto;html=1;entryX=0;entryY=0.5;entryDx=0;entryDy=0;endArrow=none;startFill=0;" parent="1" source="J42YbYLg1RH-YCloQ76U-109" target="J42YbYLg1RH-YCloQ76U-107" edge="1">
          <mxGeometry relative="1" as="geometry" />
        </mxCell>
        <mxCell id="J42YbYLg1RH-YCloQ76U-147" style="edgeStyle=orthogonalEdgeStyle;rounded=0;orthogonalLoop=1;jettySize=auto;html=1;entryX=0.5;entryY=0;entryDx=0;entryDy=0;endArrow=none;startFill=0;" parent="1" source="J42YbYLg1RH-YCloQ76U-109" target="J42YbYLg1RH-YCloQ76U-3" edge="1">
          <mxGeometry relative="1" as="geometry" />
        </mxCell>
        <mxCell id="J42YbYLg1RH-YCloQ76U-109" value="" style="rounded=0;whiteSpace=wrap;html=1;" parent="1" vertex="1">
          <mxGeometry x="280" y="130" width="80" height="30" as="geometry" />
        </mxCell>
        <mxCell id="J42YbYLg1RH-YCloQ76U-116" style="edgeStyle=orthogonalEdgeStyle;rounded=0;orthogonalLoop=1;jettySize=auto;html=1;entryX=0;entryY=0.5;entryDx=0;entryDy=0;endArrow=none;startFill=0;" parent="1" source="J42YbYLg1RH-YCloQ76U-112" target="J42YbYLg1RH-YCloQ76U-109" edge="1">
          <mxGeometry relative="1" as="geometry" />
        </mxCell>
        <mxCell id="J42YbYLg1RH-YCloQ76U-146" style="edgeStyle=orthogonalEdgeStyle;rounded=0;orthogonalLoop=1;jettySize=auto;html=1;entryX=0.5;entryY=0;entryDx=0;entryDy=0;endArrow=none;startFill=0;" parent="1" source="J42YbYLg1RH-YCloQ76U-112" target="J42YbYLg1RH-YCloQ76U-6" edge="1">
          <mxGeometry relative="1" as="geometry" />
        </mxCell>
        <mxCell id="J42YbYLg1RH-YCloQ76U-112" value="" style="rounded=0;whiteSpace=wrap;html=1;" parent="1" vertex="1">
          <mxGeometry x="90" y="130" width="110" height="30" as="geometry" />
        </mxCell>
        <mxCell id="J42YbYLg1RH-YCloQ76U-115" style="edgeStyle=orthogonalEdgeStyle;rounded=0;orthogonalLoop=1;jettySize=auto;html=1;entryX=0;entryY=0.5;entryDx=0;entryDy=0;endArrow=none;startFill=0;" parent="1" source="J42YbYLg1RH-YCloQ76U-113" target="J42YbYLg1RH-YCloQ76U-114" edge="1">
          <mxGeometry relative="1" as="geometry" />
        </mxCell>
        <mxCell id="J42YbYLg1RH-YCloQ76U-145" style="edgeStyle=orthogonalEdgeStyle;rounded=0;orthogonalLoop=1;jettySize=auto;html=1;entryX=0;entryY=0.5;entryDx=0;entryDy=0;endArrow=none;startFill=0;" parent="1" source="J42YbYLg1RH-YCloQ76U-113" target="J42YbYLg1RH-YCloQ76U-6" edge="1">
          <mxGeometry relative="1" as="geometry" />
        </mxCell>
        <mxCell id="J42YbYLg1RH-YCloQ76U-113" value="" style="rounded=0;whiteSpace=wrap;html=1;direction=south;" parent="1" vertex="1">
          <mxGeometry x="90" y="160" width="30" height="80" as="geometry" />
        </mxCell>
        <mxCell id="J42YbYLg1RH-YCloQ76U-118" style="edgeStyle=orthogonalEdgeStyle;rounded=0;orthogonalLoop=1;jettySize=auto;html=1;entryX=0;entryY=0.5;entryDx=0;entryDy=0;endArrow=none;startFill=0;" parent="1" source="J42YbYLg1RH-YCloQ76U-114" target="J42YbYLg1RH-YCloQ76U-117" edge="1">
          <mxGeometry relative="1" as="geometry" />
        </mxCell>
        <mxCell id="J42YbYLg1RH-YCloQ76U-144" style="edgeStyle=orthogonalEdgeStyle;rounded=0;orthogonalLoop=1;jettySize=auto;html=1;entryX=0;entryY=0.5;entryDx=0;entryDy=0;endArrow=none;startFill=0;" parent="1" source="J42YbYLg1RH-YCloQ76U-114" target="J42YbYLg1RH-YCloQ76U-7" edge="1">
          <mxGeometry relative="1" as="geometry" />
        </mxCell>
        <mxCell id="J42YbYLg1RH-YCloQ76U-114" value="" style="rounded=0;whiteSpace=wrap;html=1;direction=south;" parent="1" vertex="1">
          <mxGeometry x="90" y="320" width="30" height="80" as="geometry" />
        </mxCell>
        <mxCell id="J42YbYLg1RH-YCloQ76U-120" style="edgeStyle=orthogonalEdgeStyle;rounded=0;orthogonalLoop=1;jettySize=auto;html=1;entryX=0;entryY=0.5;entryDx=0;entryDy=0;endArrow=none;startFill=0;" parent="1" source="J42YbYLg1RH-YCloQ76U-117" target="J42YbYLg1RH-YCloQ76U-119" edge="1">
          <mxGeometry relative="1" as="geometry" />
        </mxCell>
        <mxCell id="J42YbYLg1RH-YCloQ76U-143" style="edgeStyle=orthogonalEdgeStyle;rounded=0;orthogonalLoop=1;jettySize=auto;html=1;entryX=0;entryY=0.5;entryDx=0;entryDy=0;endArrow=none;startFill=0;" parent="1" source="J42YbYLg1RH-YCloQ76U-117" target="J42YbYLg1RH-YCloQ76U-11" edge="1">
          <mxGeometry relative="1" as="geometry" />
        </mxCell>
        <mxCell id="J42YbYLg1RH-YCloQ76U-117" value="" style="rounded=0;whiteSpace=wrap;html=1;direction=south;" parent="1" vertex="1">
          <mxGeometry x="90" y="440" width="30" height="80" as="geometry" />
        </mxCell>
        <mxCell id="J42YbYLg1RH-YCloQ76U-122" style="edgeStyle=orthogonalEdgeStyle;rounded=0;orthogonalLoop=1;jettySize=auto;html=1;entryX=0;entryY=0.5;entryDx=0;entryDy=0;endArrow=none;startFill=0;" parent="1" source="J42YbYLg1RH-YCloQ76U-119" target="J42YbYLg1RH-YCloQ76U-121" edge="1">
          <mxGeometry relative="1" as="geometry" />
        </mxCell>
        <mxCell id="J42YbYLg1RH-YCloQ76U-142" style="edgeStyle=orthogonalEdgeStyle;rounded=0;orthogonalLoop=1;jettySize=auto;html=1;entryX=0;entryY=0.5;entryDx=0;entryDy=0;endArrow=none;startFill=0;" parent="1" source="J42YbYLg1RH-YCloQ76U-119" target="J42YbYLg1RH-YCloQ76U-16" edge="1">
          <mxGeometry relative="1" as="geometry" />
        </mxCell>
        <mxCell id="J42YbYLg1RH-YCloQ76U-119" value="" style="rounded=0;whiteSpace=wrap;html=1;direction=south;" parent="1" vertex="1">
          <mxGeometry x="90" y="560" width="30" height="80" as="geometry" />
        </mxCell>
        <mxCell id="J42YbYLg1RH-YCloQ76U-141" style="edgeStyle=orthogonalEdgeStyle;rounded=0;orthogonalLoop=1;jettySize=auto;html=1;entryX=0;entryY=0.5;entryDx=0;entryDy=0;endArrow=none;startFill=0;" parent="1" source="J42YbYLg1RH-YCloQ76U-121" target="J42YbYLg1RH-YCloQ76U-25" edge="1">
          <mxGeometry relative="1" as="geometry" />
        </mxCell>
        <mxCell id="J42YbYLg1RH-YCloQ76U-121" value="" style="rounded=0;whiteSpace=wrap;html=1;direction=south;" parent="1" vertex="1">
          <mxGeometry x="90" y="720" width="30" height="80" as="geometry" />
        </mxCell>
        <mxCell id="J42YbYLg1RH-YCloQ76U-125" style="edgeStyle=orthogonalEdgeStyle;rounded=0;orthogonalLoop=1;jettySize=auto;html=1;entryX=1;entryY=0.5;entryDx=0;entryDy=0;endArrow=none;startFill=0;" parent="1" source="J42YbYLg1RH-YCloQ76U-123" target="J42YbYLg1RH-YCloQ76U-124" edge="1">
          <mxGeometry relative="1" as="geometry" />
        </mxCell>
        <mxCell id="J42YbYLg1RH-YCloQ76U-140" style="edgeStyle=orthogonalEdgeStyle;rounded=0;orthogonalLoop=1;jettySize=auto;html=1;entryX=0.5;entryY=1;entryDx=0;entryDy=0;endArrow=none;startFill=0;" parent="1" source="J42YbYLg1RH-YCloQ76U-123" target="J42YbYLg1RH-YCloQ76U-25" edge="1">
          <mxGeometry relative="1" as="geometry" />
        </mxCell>
        <mxCell id="J42YbYLg1RH-YCloQ76U-123" value="" style="rounded=0;whiteSpace=wrap;html=1;direction=west;" parent="1" vertex="1">
          <mxGeometry x="90" y="800" width="110" height="30" as="geometry" />
        </mxCell>
        <mxCell id="J42YbYLg1RH-YCloQ76U-127" style="edgeStyle=orthogonalEdgeStyle;rounded=0;orthogonalLoop=1;jettySize=auto;html=1;entryX=1;entryY=0.5;entryDx=0;entryDy=0;endArrow=none;startFill=0;" parent="1" source="J42YbYLg1RH-YCloQ76U-124" target="J42YbYLg1RH-YCloQ76U-126" edge="1">
          <mxGeometry relative="1" as="geometry" />
        </mxCell>
        <mxCell id="J42YbYLg1RH-YCloQ76U-139" style="edgeStyle=orthogonalEdgeStyle;rounded=0;orthogonalLoop=1;jettySize=auto;html=1;entryX=0.5;entryY=1;entryDx=0;entryDy=0;endArrow=none;startFill=0;" parent="1" source="J42YbYLg1RH-YCloQ76U-124" target="J42YbYLg1RH-YCloQ76U-24" edge="1">
          <mxGeometry relative="1" as="geometry" />
        </mxCell>
        <mxCell id="J42YbYLg1RH-YCloQ76U-124" value="" style="rounded=0;whiteSpace=wrap;html=1;direction=west;" parent="1" vertex="1">
          <mxGeometry x="280" y="800" width="80" height="30" as="geometry" />
        </mxCell>
        <mxCell id="J42YbYLg1RH-YCloQ76U-129" style="edgeStyle=orthogonalEdgeStyle;rounded=0;orthogonalLoop=1;jettySize=auto;html=1;entryX=1;entryY=0.5;entryDx=0;entryDy=0;endArrow=none;startFill=0;" parent="1" source="J42YbYLg1RH-YCloQ76U-126" target="J42YbYLg1RH-YCloQ76U-128" edge="1">
          <mxGeometry relative="1" as="geometry" />
        </mxCell>
        <mxCell id="J42YbYLg1RH-YCloQ76U-138" style="edgeStyle=orthogonalEdgeStyle;rounded=0;orthogonalLoop=1;jettySize=auto;html=1;entryX=0.5;entryY=1;entryDx=0;entryDy=0;endArrow=none;startFill=0;" parent="1" source="J42YbYLg1RH-YCloQ76U-126" target="J42YbYLg1RH-YCloQ76U-23" edge="1">
          <mxGeometry relative="1" as="geometry" />
        </mxCell>
        <mxCell id="J42YbYLg1RH-YCloQ76U-126" value="Main Power" style="rounded=0;whiteSpace=wrap;html=1;direction=west;" parent="1" vertex="1">
          <mxGeometry x="400" y="800" width="80" height="30" as="geometry" />
        </mxCell>
        <mxCell id="J42YbYLg1RH-YCloQ76U-131" style="edgeStyle=orthogonalEdgeStyle;rounded=0;orthogonalLoop=1;jettySize=auto;html=1;entryX=1;entryY=0.5;entryDx=0;entryDy=0;endArrow=none;startFill=0;" parent="1" source="J42YbYLg1RH-YCloQ76U-128" target="J42YbYLg1RH-YCloQ76U-130" edge="1">
          <mxGeometry relative="1" as="geometry" />
        </mxCell>
        <mxCell id="J42YbYLg1RH-YCloQ76U-137" style="edgeStyle=orthogonalEdgeStyle;rounded=0;orthogonalLoop=1;jettySize=auto;html=1;entryX=0.5;entryY=1;entryDx=0;entryDy=0;endArrow=none;startFill=0;" parent="1" source="J42YbYLg1RH-YCloQ76U-128" target="J42YbYLg1RH-YCloQ76U-22" edge="1">
          <mxGeometry relative="1" as="geometry" />
        </mxCell>
        <mxCell id="J42YbYLg1RH-YCloQ76U-128" value="" style="rounded=0;whiteSpace=wrap;html=1;direction=west;" parent="1" vertex="1">
          <mxGeometry x="520" y="800" width="80" height="30" as="geometry" />
        </mxCell>
        <mxCell id="J42YbYLg1RH-YCloQ76U-136" style="edgeStyle=orthogonalEdgeStyle;rounded=0;orthogonalLoop=1;jettySize=auto;html=1;entryX=0.5;entryY=1;entryDx=0;entryDy=0;endArrow=none;startFill=0;" parent="1" source="J42YbYLg1RH-YCloQ76U-130" target="J42YbYLg1RH-YCloQ76U-21" edge="1">
          <mxGeometry relative="1" as="geometry" />
        </mxCell>
        <mxCell id="J42YbYLg1RH-YCloQ76U-130" value="" style="rounded=0;whiteSpace=wrap;html=1;direction=west;" parent="1" vertex="1">
          <mxGeometry x="680" y="800" width="110" height="30" as="geometry" />
        </mxCell>
      </root>
    </mxGraphModel>
  </diagram>
</mxfile>
